<svg width="200" height="200" viewBox="0 0 200 200" fill="none" xmlns="http://www.w3.org/2000/svg">
<circle cx="100" cy="100" r="100" fill="#B6722F"/>
<g clip-path="url(#clip0_1_31)">
<path d="M142 131.495C142 132.324 142.667 133 143.473 133H151.527C152.344 133 153 132.324 153 131.505C153 130.676 152.333 130 151.527 130H143.473C142.656 130 142 130.676 142 131.495Z" fill="white"/>
<path d="M151.528 137H143.472C142.659 137 142 137.669 142 138.495V138.505C142 139.331 142.659 140 143.472 140H151.528C152.341 140 153 139.331 153 138.505V138.495C153 137.669 152.341 137 151.528 137Z" fill="white"/>
<path d="M151.528 144H143.472C142.659 144 142 144.669 142 145.495V145.505C142 146.331 142.659 147 143.472 147H151.528C152.341 147 153 146.331 153 145.505V145.495C153 144.669 152.341 144 151.528 144Z" fill="white"/>
<path d="M146.987 69.053V63.2984C146.987 62.0446 145.971 61.0265 144.719 61.0265H138.973V55.2719C138.973 54.018 137.957 53 136.705 53H130.295C129.043 53 128.027 54.018 128.027 55.2719V57.0079H122.281C121.029 57.0079 120.013 58.0259 120.013 59.2798V69.053H117.466C116.653 69.053 116 69.7174 116 70.5212C116 71.3356 116.663 72 117.466 72H149.534C150.347 72 151 71.3356 151 70.5319C151 69.7174 150.337 69.053 149.534 69.053H146.987V69.053ZM128.016 69.053H122.944V59.9549H128.016V69.053ZM136.031 69.053H130.959V55.9363H136.031V69.053ZM144.056 69.053H138.973V63.9628H144.056V69.053Z" fill="white"/>
<path d="M121.525 76H117.475C116.661 76 116 76.6691 116 77.4945V77.5055C116 78.3309 116.661 79 117.475 79H121.525C122.339 79 123 78.3309 123 77.5055V77.4945C123 76.6691 122.339 76 121.525 76Z" fill="white"/>
<path d="M149.533 76H129.467C128.657 76 128 76.6691 128 77.4945V77.5055C128 78.3309 128.657 79 129.467 79H149.533C150.343 79 151 78.3309 151 77.5055V77.4945C151 76.6691 150.343 76 149.533 76Z" fill="white"/>
<path d="M149.535 83H117.465C116.656 83 116 83.6691 116 84.4945V84.5055C116 85.3309 116.656 86 117.465 86H149.535C150.344 86 151 85.3309 151 84.5055V84.4945C151 83.6691 150.344 83 149.535 83Z" fill="white"/>
<path d="M64.5055 52H64.4945C63.6691 52 63 52.6716 63 53.5C63 54.3284 63.6691 55 64.4945 55H64.5055C65.3309 55 66 54.3284 66 53.5C66 52.6716 65.3309 52 64.5055 52Z" fill="white"/>
<path d="M48.5055 52H48.4945C47.6691 52 47 52.6716 47 53.5C47 54.3284 47.6691 55 48.4945 55H48.5055C49.3309 55 50 54.3284 50 53.5C50 52.6716 49.3309 52 48.5055 52Z" fill="white"/>
<path d="M56.5055 52H56.4945C55.6691 52 55 52.6716 55 53.5C55 54.3284 55.6691 55 56.4945 55H56.5055C57.3309 55 58 54.3284 58 53.5C58 52.6716 57.3309 52 56.5055 52Z" fill="white"/>
<path d="M47 70.7965V77.2035C47 78.1991 47.8809 79 48.9766 79H56.0234C57.1191 79 58 78.1991 58 77.2035V70.7965C58 69.8009 57.1191 69 56.0234 69H48.9766C47.8809 69 47 69.8009 47 70.7965ZM55.0459 75.7749H49.9541V72.2251H55.0459V75.7749Z" fill="white"/>
<path d="M56.4484 130.112H48.5477C47.7507 130.112 47.1045 130.758 47.1045 131.555V131.565C47.1045 132.362 47.7507 133.008 48.5477 133.008H56.4484C57.2455 133.008 57.8916 132.362 57.8916 131.565V131.555C57.8916 130.758 57.2455 130.112 56.4484 130.112Z" fill="white"/>
<path d="M56.4482 130.112H48.558C47.7574 130.112 47.1148 130.765 47.1148 131.555C47.1148 132.355 47.7679 133.008 48.558 133.008H56.4482C57.2488 133.008 57.8914 132.355 57.8914 131.565C57.8914 130.765 57.2382 130.112 56.4482 130.112Z" fill="white"/>
<path d="M56.5283 137H48.4717C47.6589 137 47 137.669 47 138.495V138.505C47 139.331 47.6589 140 48.4717 140H56.5283C57.3411 140 58 139.331 58 138.505V138.495C58 137.669 57.3411 137 56.5283 137Z" fill="white"/>
<path d="M56.5283 144H48.4717C47.6589 144 47 144.669 47 145.495V145.505C47 146.331 47.6589 147 48.4717 147H56.5283C57.3411 147 58 146.331 58 145.505V145.495C58 144.669 57.3411 144 56.5283 144Z" fill="white"/>
<path d="M66.2234 136.564V126.835C66.2234 123.616 63.6069 121 60.3883 121H44.8351C41.6061 121 39 123.616 39 126.835V150.175C39 153.394 41.6061 156 44.8351 156H60.3883C63.6069 156 66.2234 153.394 66.2234 150.175V140.447V136.564ZM74 140.447V136.564V140.447ZM42.1875 126.71C42.1875 125.174 43.4438 123.918 44.9804 123.918H60.2326C61.7692 123.918 63.0255 125.174 63.0255 126.71V150.3C63.0255 151.837 61.7692 153.093 60.2326 153.093H44.9804C43.4438 153.093 42.1875 151.837 42.1875 150.3V126.71V126.71Z" fill="white"/>
<path d="M84.5331 69H64.4669C63.6568 69 63 69.6691 63 70.4945V70.5055C63 71.3309 63.6568 72 64.4669 72H84.5331C85.3432 72 86 71.3309 86 70.5055V70.4945C86 69.6691 85.3432 69 84.5331 69Z" fill="white"/>
<path d="M84.5331 76H64.4669C63.6568 76 63 76.6691 63 77.4945V77.5055C63 78.3309 63.6568 79 64.4669 79H84.5331C85.3432 79 86 78.3309 86 77.5055V77.4945C86 76.6691 85.3432 76 84.5331 76Z" fill="white"/>
<path d="M48.5055 83H48.4945C47.6691 83 47 83.6691 47 84.4945V84.5055C47 85.3309 47.6691 86 48.4945 86H48.5055C49.3309 86 50 85.3309 50 84.5055V84.4945C50 83.6691 49.3309 83 48.5055 83Z" fill="white"/>
<path d="M84.534 83H56.466C55.6563 83 55 83.6691 55 84.4945V84.5055C55 85.3309 55.6563 86 56.466 86H84.534C85.3437 86 86 85.3309 86 84.5055V84.4945C86 83.6691 85.3437 83 84.534 83Z" fill="white"/>
<path d="M113.81 112.088L113.81 112.088L113.804 112.087L109.864 111.393L109.864 111.393L109.859 111.392C106.889 110.981 103.583 110.76 100.005 110.76C96.4273 110.76 93.1217 110.981 90.1516 111.392L90.1516 111.392L90.1461 111.393L86.2066 112.087L86.2066 112.086L86.2002 112.088C82.5077 112.904 79.5342 114.071 77.4801 115.528C75.425 116.986 74.2744 118.746 74.2744 120.745V156.165C74.2744 159.208 76.9287 161.702 81.4211 163.429C85.9264 165.161 92.3417 166.15 100.005 166.15C107.669 166.15 114.084 165.161 118.589 163.429C123.082 161.702 125.736 159.208 125.736 156.165V140.425V136.485V120.745C125.736 118.752 124.585 116.991 122.53 115.532C120.476 114.074 117.503 112.904 113.81 112.088ZM64.5808 95.3204L64.5812 95.3204L68.5204 95.3099L68.5208 95.3099L88.1971 95.3099C91.5367 95.3099 94.2512 92.5949 94.2512 89.2548V49.9051C94.2512 46.565 91.5367 43.85 88.1971 43.85H44.9041C41.5645 43.85 38.85 46.565 38.85 49.9051V89.2654C38.85 92.6054 41.5645 95.3204 44.9041 95.3204H64.5808ZM44.7255 47.4493H87.8084C88.9665 47.4493 89.6873 47.7813 90.123 48.2995C90.563 48.8227 90.7365 49.5637 90.7365 50.4305V59.6109H42.3647V50.4305C42.3647 49.5218 42.6148 48.7745 43.0314 48.2576C43.4461 47.7432 44.0312 47.4493 44.7255 47.4493ZM42.3542 63.8406H90.7365V89.3599C90.7365 90.6645 89.6686 91.7422 88.3547 91.7422H44.7255C43.4216 91.7422 42.3647 90.6851 42.3647 89.3809V89.3188L42.3542 89.3083V63.8406ZM135.419 95.3204H155.096C158.436 95.3204 161.15 92.6054 161.15 89.2654V49.9051C161.15 46.565 158.436 43.85 155.096 43.85H111.813C108.474 43.85 105.759 46.565 105.759 49.9051V89.2654C105.759 92.6054 108.474 95.3204 111.813 95.3204H131.49H135.419ZM133.305 140.436V150.271C133.305 153.611 136.019 156.326 139.359 156.326H155.096C158.436 156.326 161.15 153.611 161.15 150.271V126.65C161.15 123.31 158.436 120.595 155.096 120.595H139.359C136.019 120.595 133.305 123.31 133.305 126.65V136.485V140.436ZM109.285 89.1813V49.9997C109.285 48.6009 110.436 47.4493 111.834 47.4493H155.064C156.463 47.4493 157.614 48.6009 157.614 49.9997V89.1813C157.614 90.58 156.463 91.7317 155.064 91.7317H111.834C110.436 91.7317 109.285 90.58 109.285 89.1813ZM136.83 126.535C136.83 125.062 138.034 123.858 139.506 123.858H154.938C156.41 123.858 157.614 125.062 157.614 126.535V150.407C157.614 151.879 156.41 153.084 154.938 153.084H139.506C138.034 153.084 136.83 151.879 136.83 150.407V126.535ZM99.9948 161.941C92.4531 161.941 87.0603 160.965 83.5584 159.746C81.8068 159.136 80.5336 158.466 79.7015 157.832C79.2854 157.515 78.9835 157.209 78.7867 156.927C78.5894 156.645 78.5035 156.395 78.5035 156.186V150.262C82.9044 152.849 90.4976 154.371 99.9948 154.371C109.492 154.371 117.085 152.849 121.486 150.262V156.186C121.486 156.395 121.4 156.645 121.203 156.927C121.006 157.209 120.704 157.515 120.288 157.832C119.456 158.466 118.183 159.136 116.431 159.746C112.929 160.965 107.536 161.941 99.9948 161.941ZM99.9948 150.131C92.4531 150.131 87.0603 149.155 83.5584 147.936C81.8068 147.325 80.5336 146.656 79.7015 146.022C79.2854 145.704 78.9835 145.399 78.7867 145.117C78.5894 144.835 78.5035 144.585 78.5035 144.376V138.452C82.9044 141.039 90.4976 142.561 99.9948 142.561C109.492 142.561 117.085 141.039 121.486 138.452V144.376C121.486 144.585 121.4 144.835 121.203 145.117C121.006 145.399 120.704 145.704 120.288 146.022C119.456 146.656 118.183 147.325 116.431 147.936C112.929 149.155 107.536 150.131 99.9948 150.131ZM99.9948 138.321C92.4531 138.321 87.0603 137.345 83.5584 136.125C81.8068 135.515 80.5336 134.846 79.7015 134.211C79.2854 133.894 78.9835 133.588 78.7867 133.307C78.5894 133.024 78.5035 132.775 78.5035 132.566V126.642C82.9044 129.228 90.4976 130.751 99.9948 130.751C109.492 130.751 117.085 129.228 121.486 126.642V132.566C121.486 132.775 121.4 133.024 121.203 133.307C121.006 133.588 120.704 133.894 120.288 134.211C119.456 134.846 118.183 135.515 116.431 136.125C112.929 137.345 107.536 138.321 99.9948 138.321ZM90.1869 115.66C92.9303 115.252 96.1889 115.011 99.9948 115.011C103.8 115.011 107.059 115.263 109.803 115.66L113.735 116.416C116.423 117.075 118.373 117.887 119.647 118.679C120.285 119.076 120.749 119.465 121.051 119.823C121.356 120.184 121.486 120.501 121.486 120.756C121.486 120.965 121.4 121.214 121.203 121.497C121.006 121.778 120.704 122.084 120.288 122.401C119.456 123.036 118.183 123.705 116.431 124.315C112.929 125.535 107.536 126.511 99.9948 126.511C92.4531 126.511 87.0603 125.535 83.5584 124.315C81.8068 123.705 80.5336 123.036 79.7015 122.401C79.2854 122.084 78.9835 121.778 78.7867 121.497C78.5894 121.214 78.5035 120.965 78.5035 120.756C78.5035 120.501 78.6344 120.184 78.9396 119.823C79.243 119.465 79.7077 119.076 80.346 118.679C81.6214 117.887 83.5713 117.075 86.2541 116.416L90.1869 115.66Z" fill="white" stroke="white" stroke-width="0.3"/>
<path d="M133 94V104.766H112V118" stroke="white" stroke-width="3.19" stroke-linecap="round" stroke-linejoin="round"/>
<path d="M66 94V104.766H88V118" stroke="white" stroke-width="3.19" stroke-linecap="round" stroke-linejoin="round"/>
<path d="M134 138H124" stroke="white" stroke-width="3.19" stroke-miterlimit="10"/>
<path d="M75 138H66" stroke="white" stroke-width="3.19" stroke-miterlimit="10"/>
</g>
<defs>
<clipPath id="clip0_1_31">
<rect width="199.71" height="199.71" fill="white"/>
</clipPath>
</defs>
</svg>
