<svg width="200" height="200" viewBox="0 0 200 200" fill="none" xmlns="http://www.w3.org/2000/svg">
<circle cx="100" cy="100" r="100" fill="#B6722F"/>
<g clip-path="url(#clip0_2_30)">
<path d="M100 88.2C116.243 88.2 129.41 75.0327 129.41 58.79C129.41 42.5473 116.243 29.38 100 29.38C83.7573 29.38 70.59 42.5473 70.59 58.79C70.59 75.0327 83.7573 88.2 100 88.2Z" stroke="white" stroke-width="5" stroke-miterlimit="10"/>
<path d="M78.99 79.36C84.32 73.9 91.77 70.52 100 70.52C108.23 70.52 115.68 73.9 121.01 79.36" stroke="white" stroke-width="4" stroke-miterlimit="10"/>
<path d="M119.29 151.55C124.65 144.55 133.1 140.04 142.61 140.04C152.12 140.04 160.58 144.55 165.93 151.55" stroke="white" stroke-width="4" stroke-miterlimit="10"/>
<path d="M142.61 140.13C149.138 140.13 154.43 134.838 154.43 128.31C154.43 121.782 149.138 116.49 142.61 116.49C136.082 116.49 130.79 121.782 130.79 128.31C130.79 134.838 136.082 140.13 142.61 140.13Z" stroke="white" stroke-width="4" stroke-miterlimit="10"/>
<path d="M142.61 159.85C158.853 159.85 172.02 146.683 172.02 130.44C172.02 114.197 158.853 101.03 142.61 101.03C126.367 101.03 113.2 114.197 113.2 130.44C113.2 146.683 126.367 159.85 142.61 159.85Z" stroke="white" stroke-width="5" stroke-miterlimit="10"/>
<path d="M57.39 159.85C73.6327 159.85 86.8 146.683 86.8 130.44C86.8 114.197 73.6327 101.03 57.39 101.03C41.1473 101.03 27.98 114.197 27.98 130.44C27.98 146.683 41.1473 159.85 57.39 159.85Z" stroke="white" stroke-width="5" stroke-miterlimit="10"/>
<path d="M49.04 102.23C49.03 101.97 49.03 101.71 49.03 101.44C49.03 84.32 57.56 69.19 70.62 60.07" stroke="white" stroke-width="4" stroke-miterlimit="10"/>
<path d="M80.76 148.29C86.54 150.61 92.85 151.88 99.45 151.88C106.05 151.88 112.97 150.49 118.97 147.95" stroke="white" stroke-width="4" stroke-miterlimit="10"/>
<path d="M129.34 60.82C141.81 70 149.9 84.78 149.9 101.44C149.9 101.6 149.9 101.77 149.89 101.93" stroke="white" stroke-width="4" stroke-miterlimit="10"/>
<path d="M100 70.53V58.1" stroke="white" stroke-width="3.19" stroke-miterlimit="10"/>
<path d="M110.13 60.35C106.78 63.7 100.35 62.69 100.35 62.69C100.35 62.69 99.34 56.26 102.69 52.91C106.04 49.56 113.53 49.5 113.53 49.5C113.53 49.5 113.47 57 110.12 60.34L110.13 60.35Z" stroke="white" stroke-width="3.19" stroke-miterlimit="10"/>
<path d="M98.23 48.06C101.33 51.64 99.86 57.98 99.86 57.98C99.86 57.98 93.37 58.52 90.27 54.94C87.17 51.36 87.65 43.88 87.65 43.88C87.65 43.88 95.12 44.48 98.22 48.06H98.23Z" stroke="white" stroke-width="3.19" stroke-miterlimit="10"/>
<path d="M57.39 141.18C63.3215 141.18 68.13 136.372 68.13 130.44C68.13 124.508 63.3215 119.7 57.39 119.7C51.4585 119.7 46.65 124.508 46.65 130.44C46.65 136.372 51.4585 141.18 57.39 141.18Z" stroke="white" stroke-width="4.31" stroke-miterlimit="10"/>
<path d="M59.4 113.47H55.37C54.8011 113.47 54.34 113.931 54.34 114.5V119.81C54.34 120.379 54.8011 120.84 55.37 120.84H59.4C59.9689 120.84 60.43 120.379 60.43 119.81V114.5C60.43 113.931 59.9689 113.47 59.4 113.47Z" fill="white"/>
<path d="M65.2685 116.263L61.8454 120.323C61.4787 120.758 61.5339 121.407 61.9688 121.774L65.0496 124.372C65.4845 124.739 66.1343 124.684 66.501 124.249L69.9242 120.189C70.2909 119.755 70.2356 119.105 69.8008 118.738L66.7199 116.14C66.2851 115.773 65.6352 115.829 65.2685 116.263Z" fill="white"/>
<path d="M72.4535 124.515L67.2289 125.464C66.6692 125.565 66.2978 126.101 66.3995 126.661L67.1193 130.626C67.221 131.186 67.7571 131.557 68.3168 131.456L73.5414 130.507C74.1011 130.406 74.4724 129.869 74.3708 129.31L73.6509 125.345C73.5493 124.785 73.0132 124.413 72.4535 124.515Z" fill="white"/>
<path d="M66.6206 133.408L64.5837 136.886C64.2962 137.376 64.461 138.007 64.9518 138.295L69.5337 140.979C70.0245 141.266 70.6555 141.101 70.943 140.611L72.9799 137.133C73.2674 136.642 73.1026 136.011 72.6117 135.724L68.0299 133.04C67.5391 132.753 66.9081 132.917 66.6206 133.408Z" fill="white"/>
<path d="M62.5792 138.583L58.8024 139.989C58.2693 140.188 57.9981 140.781 58.1965 141.314L60.0492 146.29C60.2477 146.823 60.8407 147.095 61.3738 146.896L65.1506 145.49C65.6837 145.292 65.955 144.699 65.7565 144.165L63.9038 139.189C63.7054 138.656 63.1123 138.385 62.5792 138.583Z" fill="white"/>
<path d="M50.842 139.167L48.9894 144.144C48.7909 144.677 49.0622 145.27 49.5953 145.468L53.372 146.874C53.9052 147.073 54.4982 146.802 54.6967 146.269L56.5493 141.292C56.7478 140.759 56.4765 140.166 55.9434 139.968L52.1667 138.562C51.6336 138.363 51.0405 138.634 50.842 139.167Z" fill="white"/>
<path d="M46.7325 133.054L42.1507 135.738C41.6598 136.025 41.495 136.656 41.7825 137.147L43.8194 140.625C44.1069 141.115 44.7379 141.28 45.2288 140.993L49.8106 138.309C50.3014 138.021 50.4662 137.39 50.1787 136.9L48.1418 133.422C47.8543 132.931 47.2233 132.767 46.7325 133.054Z" fill="white"/>
<path d="M41.131 125.35L40.4112 129.315C40.3095 129.875 40.6809 130.411 41.2406 130.513L46.4652 131.461C47.0249 131.563 47.561 131.192 47.6626 130.632L48.3825 126.667C48.4841 126.107 48.1128 125.571 47.553 125.469L42.3285 124.521C41.7687 124.419 41.2326 124.791 41.131 125.35Z" fill="white"/>
<path d="M48.0417 116.148L44.9609 118.746C44.526 119.113 44.4707 119.762 44.8375 120.197L48.2606 124.257C48.6273 124.691 49.2771 124.747 49.712 124.38L52.7928 121.782C53.2277 121.415 53.2829 120.765 52.9162 120.331L49.4931 116.271C49.1264 115.836 48.4766 115.781 48.0417 116.148Z" fill="white"/>
<path d="M59.4 113.47H55.37C54.8011 113.47 54.34 113.931 54.34 114.5V119.81C54.34 120.379 54.8011 120.84 55.37 120.84H59.4C59.9689 120.84 60.43 120.379 60.43 119.81V114.5C60.43 113.931 59.9689 113.47 59.4 113.47Z" fill="white"/>
<path d="M92.13 104.91L98.62 112.3L110.44 100.48" stroke="white" stroke-width="4.73" stroke-linecap="round" stroke-linejoin="round"/>
</g>
<defs>
<clipPath id="clip0_2_30">
<rect width="199.71" height="199.71" fill="white"/>
</clipPath>
</defs>
</svg>
