<svg width="200" height="200" viewBox="0 0 200 200" fill="none" xmlns="http://www.w3.org/2000/svg">
<circle cx="100" cy="100" r="100" fill="#B6722F"/>
<g clip-path="url(#clip0_2_24)">
<path d="M131.95 51.46H147.91C151.71 51.46 154.8 54.54 154.8 58.35V112.21C154.8 116.02 151.71 119.1 147.91 119.1H52.1C48.3 119.1 45.21 116.02 45.21 112.21V58.35C45.21 54.54 48.3 51.46 52.1 51.46H68.06" stroke="white" stroke-width="5" stroke-miterlimit="10" stroke-linecap="round"/>
<path d="M110.25 119.39H89.74V129.36H110.25V119.39Z" stroke="white" stroke-width="4" stroke-miterlimit="10"/>
<path d="M148.72 139.08H51.11C47.9344 139.08 45.36 141.654 45.36 144.83V151.07C45.36 154.246 47.9344 156.82 51.11 156.82H148.72C151.896 156.82 154.47 154.246 154.47 151.07V144.83C154.47 141.654 151.896 139.08 148.72 139.08Z" stroke="white" stroke-width="4" stroke-miterlimit="10"/>
<path d="M128.22 75.7705L128.9 75.0205C131.19 72.4905 132.45 69.3405 132.45 66.1405C132.45 60.2705 128.34 54.9805 122.22 52.9805L121.27 52.6705L121.46 51.7105C121.56 51.2105 121.61 50.6705 121.61 50.0405C121.61 44.1205 116.36 39.3105 109.89 39.3105C106.8 39.3105 103.78 40.4605 101.6 42.4605L100.85 43.1405L100.1 42.4605C97.92 40.4605 94.91 39.3105 91.81 39.3105C85.34 39.3105 80.09 44.1205 80.09 50.0405C80.09 50.6805 80.13 51.2105 80.24 51.7105L80.43 52.6705L79.48 52.9805C73.37 54.9305 69.25 60.2305 69.25 66.1405C69.25 69.0305 70.2 71.7505 71.97 74.0405L72.49 74.6905L72.02 75.3605C70.2 77.9205 69.25 80.8405 69.25 83.7905C69.25 88.6105 71.77 93.2305 76 96.1305L76.46 96.4605L76.49 97.0205C76.71 103.711 82.66 108.951 90.02 108.951C93.87 108.951 97.52 107.461 100.05 104.851L100.85 104.041L101.63 104.851C104.2 107.451 107.86 108.951 111.68 108.951C118.59 108.951 124.52 104.051 125.18 97.7805L125.24 97.2305L125.7 96.9505C129.87 94.4005 132.45 89.9805 132.45 85.3905C132.45 82.1505 131.19 79.0005 128.9 76.5105L128.22 75.7705V75.7705ZM122.42 78.1705C125.41 79.7405 127.18 82.4505 127.18 85.4205C127.18 87.2305 126.51 88.9905 125.26 90.5005L124.3 91.6405L123.47 90.3805C121.87 87.8905 119.3 85.9805 116.25 85.0205C114.7 84.5505 113.17 85.2905 112.71 86.7505C112.5 87.4505 112.56 88.1905 112.89 88.7905C113.29 89.5905 113.97 89.9705 114.49 90.1505C117.64 91.1705 119.79 93.7805 119.79 96.6305C119.79 100.451 116.13 103.561 111.65 103.561C107.17 103.561 103.51 100.451 103.51 96.6305V77.3505C103.51 73.5305 107.17 70.4205 111.65 70.4205C113.14 70.4205 114.34 69.2105 114.34 67.7305C114.34 66.2505 113.14 65.0405 111.65 65.0405C109.39 65.0405 107.12 65.5705 105.14 66.5805L103.51 67.4105V63.1305C103.51 61.6405 102.31 60.4405 100.82 60.4405C99.33 60.4405 98.13 61.6405 98.13 63.1305V80.2405L96.52 79.4305C95.9 79.1205 95.2 78.8405 94.42 78.5705C93.01 78.1405 91.5 78.9405 91.06 80.3605C90.85 81.0405 90.91 81.8005 91.24 82.4005C91.64 83.2005 92.32 83.5705 92.82 83.7505C95.99 84.7705 98.13 87.3905 98.13 90.2305V96.6805C98.13 100.501 94.47 103.611 89.99 103.611C85.51 103.611 81.85 100.501 81.85 96.6805C81.85 95.0405 82.55 93.4205 83.82 92.1705C84.32 91.6705 84.62 90.9705 84.62 90.2805C84.62 89.5905 84.35 88.8905 83.85 88.3905C82.8 87.3505 81.02 87.4005 80.08 88.3605C79.62 88.8205 79.19 89.3205 78.81 89.8405L78 90.9905L77.08 89.9205C75.56 88.1605 74.71 86.0005 74.71 83.8405C74.71 79.2505 78.29 75.2305 83.43 74.0105C84.14 73.8605 84.73 73.4505 85.15 72.8105C85.52 72.2005 85.64 71.4905 85.49 70.7505C85.34 70.0805 84.93 69.4905 84.29 69.0805C83.68 68.7105 82.97 68.5805 82.23 68.7405C80.59 69.1105 78.97 69.7505 77.45 70.5905L76.55 71.0805L75.99 70.2205C75.18 68.9805 74.76 67.6005 74.76 66.1405C74.76 61.4805 79.17 57.6305 84.6 57.5905C85.35 57.5905 85.98 57.3505 86.49 56.9205C87.47 56.0905 87.7 54.6705 87.07 53.5305L86.73 53.0605C86.21 52.4405 85.59 51.4005 85.59 50.0005C85.59 47.0705 88.43 44.6705 91.92 44.6705C95.41 44.6705 98.25 47.0705 98.25 50.0005C98.25 51.4905 99.46 52.7105 100.96 52.7105C102.46 52.7105 103.65 51.5005 103.65 50.0005C103.65 47.0705 106.49 44.6705 109.98 44.6705C113.47 44.6705 116.31 47.0705 116.31 50.0005C116.31 50.4705 116.24 50.9505 116.06 51.4805L115.84 52.1505L115.14 52.2405C113.57 52.4505 112.11 52.8305 110.74 53.4105C110.07 53.6905 109.56 54.2205 109.29 54.8905C109.02 55.6005 109.02 56.3105 109.29 57.0105C109.56 57.6505 110.09 58.1805 110.75 58.4305C111.45 58.7105 112.17 58.7105 112.87 58.4305C114.14 57.9105 115.58 57.6205 117.09 57.5705H117.3C122.76 57.6105 127.19 61.4505 127.19 66.1205C127.19 69.0605 125.41 71.7705 122.43 73.3705C121.53 73.8405 120.96 74.7805 120.96 75.7705C120.96 76.7605 121.52 77.7105 122.43 78.1805L122.42 78.1705Z" fill="white"/>
<path d="M144.52 145.58H135.32" stroke="white" stroke-width="3.21" stroke-miterlimit="10" stroke-linecap="round"/>
<path d="M116.66 151.34H59.12" stroke="white" stroke-width="3.21" stroke-miterlimit="10" stroke-linecap="round"/>
<path d="M55.42 145.58H60.35" stroke="white" stroke-width="3.21" stroke-miterlimit="10" stroke-linecap="round"/>
<path d="M70.21 145.58H77.12" stroke="white" stroke-width="3.21" stroke-miterlimit="10" stroke-linecap="round"/>
<path d="M81.72 145.58H88.63" stroke="white" stroke-width="3.21" stroke-miterlimit="10" stroke-linecap="round"/>
<path d="M121.77 151.34H128.67" stroke="white" stroke-width="3.21" stroke-miterlimit="10" stroke-linecap="round"/>
<path d="M107.7 145.58H116.24" stroke="white" stroke-width="3.21" stroke-miterlimit="10" stroke-linecap="round"/>
<path d="M70.77 129.36H129.23" stroke="white" stroke-width="4" stroke-miterlimit="10" stroke-linecap="round"/>
<path d="M60.35 119.1V123.28C60.35 126.64 57.63 129.36 54.27 129.36H35.5C32.14 129.36 29.42 132.08 29.42 135.44V137.49C29.42 140.85 32.14 143.57 35.5 143.57H45.35" stroke="white" stroke-width="4" stroke-miterlimit="10"/>
</g>
<defs>
<clipPath id="clip0_2_24">
<rect width="199.71" height="199.71" fill="white"/>
</clipPath>
</defs>
</svg>
