<svg width="201" height="200" viewBox="0 0 201 200" fill="none" xmlns="http://www.w3.org/2000/svg">
<circle cx="100" cy="100" r="100" fill="#B6722F"/>
<g clip-path="url(#clip0_0_13)">
<path d="M45.6101 114.039L45.5001 114.059C43.6001 114.399 42.3301 116.229 42.6801 118.129L45.1201 131.599C45.4701 133.499 47.2901 134.769 49.2001 134.419L58.9101 132.649C59.7001 132.509 60.4701 132.909 60.8201 133.629C61.8101 135.619 62.9301 137.529 64.1901 139.339C64.6501 139.999 64.6301 140.889 64.1101 141.509L57.7201 149.079C56.4701 150.559 56.6601 152.769 58.1401 154.019L68.6001 162.839C70.0801 164.089 72.3001 163.899 73.5401 162.419L80.0001 154.769C80.5101 154.149 81.3701 153.979 82.1001 154.309C84.2001 155.269 86.3901 156.069 88.6601 156.689C89.4401 156.909 89.9801 157.599 89.9801 158.399V168.409C89.9801 170.339 91.5601 171.919 93.4901 171.919H107.17C109.1 171.919 110.67 170.349 110.67 168.409V158.399C110.67 157.589 111.22 156.899 112 156.689C114.27 156.069 116.46 155.269 118.55 154.309C119.29 153.979 120.14 154.149 120.66 154.769L127.11 162.419C128.36 163.899 130.57 164.089 132.05 162.839L142.51 154.019C143.99 152.769 144.18 150.559 142.93 149.079L136.55 141.509C136.03 140.889 136.01 139.999 136.47 139.339C137.73 137.529 138.85 135.619 139.83 133.629C140.19 132.909 140.96 132.509 141.75 132.649L151.45 134.419C153.36 134.769 155.18 133.499 155.53 131.599L157.97 118.129C158.32 116.229 157.05 114.399 155.15 114.059L155.04 114.039M129.32 114.039C129.45 130.919 115.08 144.539 97.9601 143.169C83.9101 142.049 72.5401 130.669 71.4301 116.619C71.3601 115.749 71.3301 114.889 71.3501 114.039" stroke="white" stroke-width="5" stroke-linecap="round" stroke-linejoin="round"/>
<path d="M162.04 103H39.96" stroke="white" stroke-width="4" stroke-linecap="round" stroke-linejoin="round"/>
<path d="M57.8101 69.8205C57.8101 69.8205 112.9 71.4005 141.13 35.3105" stroke="white" stroke-width="5" stroke-linecap="round" stroke-linejoin="round"/>
<path d="M57.0701 101.859V88.1191H74.7501V101.859" stroke="white" stroke-width="5" stroke-linecap="round" stroke-linejoin="round"/>
<path d="M91.49 101.86V78.2598H109.17V101.86" stroke="white" stroke-width="5" stroke-linecap="round" stroke-linejoin="round"/>
<path d="M125.91 101.86V67.6504H143.59V101.86" stroke="white" stroke-width="5" stroke-linecap="round" stroke-linejoin="round"/>
<path d="M141.13 46.6105V35.3105H129.83" stroke="white" stroke-width="5" stroke-linecap="round" stroke-linejoin="round"/>
</g>
<defs>
<clipPath id="clip0_0_13">
<rect width="199.71" height="199.71" fill="white" transform="translate(1)"/>
</clipPath>
</defs>
</svg>
