<svg viewBox="0 0 42 45" fill="none" xmlns="http://www.w3.org/2000/svg">
<path d="M28.7759 38.341C28.5827 38.3405 28.3939 38.2828 28.2334 38.1749C28.0729 38.067 27.9478 37.9138 27.8738 37.7347C27.7999 37.5556 27.7804 37.3585 27.8179 37.1683C27.8554 36.9781 27.9481 36.8033 28.0844 36.6659L34.7992 29.927C34.9833 29.7468 35.2308 29.6468 35.488 29.6485C35.7451 29.6502 35.9913 29.7535 36.1731 29.9361C36.3548 30.1186 36.4576 30.3657 36.4591 30.6238C36.4606 30.8819 36.3607 31.1302 36.1811 31.3149L29.4674 38.0528C29.3767 38.1442 29.269 38.2167 29.1503 38.2662C29.0316 38.3156 28.9044 38.341 28.7759 38.341V38.341Z" fill="currentColor"/>
<path d="M21.4695 38.3405C21.2767 38.3393 21.0885 38.2809 20.9286 38.1727C20.7687 38.0645 20.6442 37.9113 20.5708 37.7324C20.4974 37.5534 20.4783 37.3567 20.5159 37.1669C20.5535 36.977 20.6461 36.8026 20.7822 36.6654L34.7995 22.5936C34.983 22.4097 35.2318 22.3064 35.4912 22.3066C35.6196 22.3067 35.7468 22.3322 35.8654 22.3816C35.984 22.431 36.0917 22.5034 36.1825 22.5946C36.2732 22.6858 36.3452 22.7941 36.3942 22.9132C36.4433 23.0323 36.4685 23.1599 36.4684 23.2888C36.4683 23.4177 36.4429 23.5453 36.3936 23.6643C36.3444 23.7834 36.2723 23.8915 36.1814 23.9826L22.16 38.0523C22.0696 38.1438 21.962 38.2164 21.8435 38.2659C21.725 38.3153 21.5979 38.3407 21.4695 38.3405V38.3405Z" fill="currentColor"/>
<path d="M14.1616 38.3406C13.9685 38.34 13.7799 38.2821 13.6195 38.1741C13.4591 38.0661 13.3342 37.913 13.2604 37.7339C13.1865 37.5548 13.1672 37.3578 13.2047 37.1677C13.2422 36.9776 13.3349 36.8029 13.4711 36.6655L34.7993 15.2607C34.889 15.1651 34.9969 15.0885 35.1167 15.0355C35.2364 14.9826 35.3655 14.9542 35.4964 14.9523C35.6272 14.9503 35.7571 14.9747 35.8784 15.024C35.9997 15.0734 36.1098 15.1467 36.2023 15.2395C36.2949 15.3324 36.3679 15.4429 36.4171 15.5646C36.4662 15.6863 36.4905 15.8167 36.4886 15.948C36.4866 16.0793 36.4584 16.2089 36.4056 16.3291C36.3528 16.4493 36.2765 16.5576 36.1812 16.6476L14.8531 38.0524C14.7626 38.144 14.6548 38.2167 14.5361 38.2662C14.4174 38.3156 14.2901 38.3409 14.1616 38.3406Z" fill="currentColor"/>
<path d="M36.4591 8.48551C36.4596 8.48032 36.4596 8.47509 36.4591 8.4699C36.4591 8.45742 36.4591 8.44493 36.4529 8.43245C36.4466 8.41996 36.4466 8.40019 36.4425 8.38459C36.4383 8.36898 36.4259 8.32632 36.4166 8.29719C36.4072 8.26806 36.4041 8.26286 36.3969 8.24621C36.3896 8.22956 36.3772 8.20043 36.3658 8.17858C36.3447 8.1348 36.3197 8.09301 36.2911 8.05373C36.2787 8.03604 36.2663 8.0194 36.2528 8.00275C36.2499 7.99845 36.2464 7.9946 36.2424 7.9913C36.2293 7.97439 36.2151 7.9584 36.1999 7.94344C36.1833 7.92576 36.1667 7.90911 36.1491 7.8935C36.1137 7.86195 36.0763 7.83276 36.0371 7.80611C36.0174 7.79258 35.9977 7.7801 35.977 7.76865C35.8984 7.72204 35.8136 7.687 35.7251 7.66461L35.695 7.65732C35.6769 7.65311 35.6586 7.64998 35.6401 7.64796H35.6339C35.6121 7.64796 35.5893 7.64172 35.5675 7.64068C35.5457 7.63964 35.5188 7.64068 35.4949 7.64068H10.0458C9.91808 7.01334 9.62341 6.43245 9.19311 5.95969C8.76281 5.48694 8.21296 5.13998 7.60195 4.95568C6.99094 4.77138 6.3416 4.75661 5.7229 4.91295C5.1042 5.06928 4.53925 5.39088 4.08805 5.84359C3.63685 6.29629 3.31626 6.8632 3.16034 7.48408C3.00441 8.10496 3.01896 8.75664 3.20245 9.36989C3.38594 9.98314 3.73152 10.5351 4.20247 10.967C4.67342 11.399 5.25217 11.6949 5.87723 11.8232V37.3596C5.87723 37.3846 5.87723 37.4095 5.87723 37.4335C5.87723 37.4574 5.87723 37.4782 5.88448 37.5001C5.884 37.5021 5.884 37.5043 5.88448 37.5063C5.88658 37.5252 5.8897 37.5439 5.89381 37.5625C5.89381 37.5729 5.89381 37.5833 5.90107 37.5927L5.91351 37.6384C5.91351 37.6499 5.92077 37.6613 5.92491 37.6728C5.93561 37.7083 5.94878 37.7431 5.96431 37.7768L5.97675 37.8028C5.98215 37.815 5.98839 37.8269 5.99541 37.8382C6.0316 37.9042 6.07544 37.9657 6.12604 38.0213C6.14159 38.039 6.15817 38.0557 6.1758 38.0723C6.19342 38.089 6.2069 38.1014 6.22349 38.115C6.22677 38.119 6.23061 38.1225 6.23489 38.1254L6.28569 38.1639C6.32517 38.192 6.36677 38.2171 6.41009 38.2388C6.43186 38.2502 6.45467 38.2606 6.47748 38.27C6.53693 38.295 6.59876 38.3138 6.66201 38.3262L6.70141 38.3335C6.75083 38.3409 6.80072 38.3447 6.85069 38.3449C7.0168 38.3452 7.18023 38.303 7.32551 38.2221L7.35039 38.2076C7.42035 38.1659 7.48479 38.1156 7.54218 38.0577L36.1823 9.31265C36.2399 9.25506 36.2901 9.19038 36.3316 9.12017C36.3399 9.10665 36.3471 9.09208 36.3544 9.07856C36.376 9.03691 36.3947 8.9938 36.4104 8.94954C36.4266 8.9049 36.4391 8.85896 36.4477 8.81221C36.4477 8.79868 36.4529 8.78619 36.4549 8.77267C36.4651 8.70625 36.4686 8.63898 36.4653 8.57187C36.4653 8.54273 36.4632 8.5136 36.4591 8.48551ZM7.83246 34.9905V11.6661C8.30137 11.4881 8.72724 11.2121 9.08183 10.8564C9.43643 10.5007 9.71166 10.0734 9.88929 9.60293H33.1302L7.83246 34.9905Z" fill="currentColor"/>
<path d="M6.12988 38.0166C6.14543 38.0343 6.16202 38.0509 6.17964 38.0676L6.16409 38.053C6.15165 38.0405 6.14025 38.028 6.12988 38.0166Z" fill="currentColor"/>
<path d="M6.29004 38.1592C6.32952 38.1873 6.37111 38.2124 6.41444 38.2341C6.37069 38.2132 6.32903 38.1881 6.29004 38.1592V38.1592Z" fill="currentColor"/>
<path d="M36.1823 7.92789L36.1968 7.94349C36.1802 7.92581 36.1636 7.90916 36.146 7.89355C36.1584 7.90396 36.1698 7.91644 36.1823 7.92789Z" fill="currentColor"/>
</svg>
