<svg viewBox="0 0 325 403" fill="none" xmlns="http://www.w3.org/2000/svg">
<path d="M88.8038 354.417L79.1423 334.09H74.6212V354.417H61.2017V299.796H82.7996C94.9088 299.796 101.431 308.389 101.431 317.364C101.453 320.342 100.628 323.265 99.0526 325.791C97.4771 328.318 95.2159 330.344 92.533 331.634L104.34 354.417H88.8038ZM82.2092 311.84H74.6212V322.889H82.2092C82.9581 322.927 83.7069 322.813 84.4101 322.552C85.1134 322.292 85.7563 321.891 86.2999 321.375C86.8435 320.858 87.2763 320.236 87.5721 319.546C87.8678 318.857 88.0203 318.115 88.0203 317.364C88.0203 316.614 87.8678 315.872 87.5721 315.182C87.2763 314.493 86.8435 313.871 86.2999 313.354C85.7563 312.837 85.1134 312.437 84.4101 312.176C83.7069 311.916 82.9581 311.801 82.2092 311.84V311.84Z" fill="currentColor"/>
<path d="M132.662 354.879C124.303 354.879 117.486 353.344 111.964 347.676L120.553 339.082C123.389 341.92 128.371 342.922 132.741 342.922C138.033 342.922 140.559 341.157 140.559 338.009C140.632 336.837 140.247 335.683 139.487 334.789C138.477 333.928 137.212 333.422 135.887 333.349L129.293 332.427C124.462 331.706 120.783 330.129 118.328 327.593C115.873 325.058 114.563 321.276 114.563 316.594C114.563 306.625 122.079 299.307 134.498 299.307C142.316 299.307 148.22 301.151 152.899 305.825L144.469 314.268C141.013 310.81 136.492 311.048 134.116 311.048C129.437 311.048 127.522 313.727 127.522 316.09C127.529 317.044 127.915 317.956 128.594 318.625C129.625 319.578 130.952 320.148 132.352 320.239L138.947 321.154C143.85 321.874 147.377 323.379 149.681 325.684C152.561 328.522 153.741 332.585 153.741 337.649C153.749 348.821 144.166 354.879 132.662 354.879Z" fill="currentColor"/>
<path d="M200.602 348.741C196.613 352.732 192.013 354.878 185.339 354.878C178.665 354.878 174.072 352.718 170.084 348.741C164.324 342.979 164.562 335.315 164.562 327.132C164.562 318.949 164.332 311.285 170.084 305.523C174.072 301.532 178.673 299.386 185.339 299.386C192.006 299.386 196.613 301.547 200.602 305.523C206.361 311.285 206.123 318.949 206.123 327.132C206.123 335.315 206.347 342.986 200.602 348.741ZM190.71 313.684C190.031 312.933 189.203 312.333 188.279 311.922C187.354 311.512 186.354 311.3 185.343 311.3C184.331 311.3 183.331 311.512 182.407 311.922C181.482 312.333 180.654 312.933 179.976 313.684C178.745 315.29 177.981 317.134 177.981 327.103C177.981 337.072 178.745 338.844 179.976 340.458C180.641 341.229 181.465 341.848 182.391 342.272C183.318 342.696 184.324 342.916 185.343 342.916C186.361 342.916 187.368 342.696 188.294 342.272C189.22 341.848 190.044 341.229 190.71 340.458C191.934 338.844 192.704 337.08 192.704 327.103C192.704 317.127 191.934 315.29 190.71 313.684V313.684Z" fill="currentColor"/>
<path d="M256.116 354.417V328.255L248.369 341.761H239.78L232.034 328.255V354.417H218.622V299.796H231.804L244.042 323.883L256.281 299.796H269.47V354.417H256.116Z" fill="currentColor"/>
<path d="M219.752 271.279C218.41 271.276 217.1 270.876 215.985 270.129C214.87 269.382 214.001 268.321 213.488 267.081C212.974 265.841 212.839 264.477 213.099 263.16C213.359 261.843 214.003 260.633 214.95 259.682L261.58 213.027C262.859 211.78 264.577 211.087 266.363 211.099C268.149 211.111 269.858 211.826 271.121 213.09C272.383 214.354 273.097 216.065 273.107 217.851C273.118 219.638 272.424 221.357 271.176 222.636L224.554 269.283C223.924 269.916 223.176 270.418 222.352 270.761C221.528 271.103 220.644 271.279 219.752 271.279V271.279Z" fill="currentColor"/>
<path d="M169.011 271.279C167.672 271.27 166.365 270.866 165.255 270.117C164.145 269.368 163.28 268.308 162.77 267.069C162.26 265.83 162.128 264.468 162.389 263.153C162.65 261.839 163.293 260.632 164.238 259.682L261.58 162.26C262.854 160.987 264.582 160.272 266.383 160.273C267.275 160.274 268.158 160.451 268.982 160.793C269.805 161.135 270.554 161.636 271.184 162.267C271.814 162.899 272.314 163.648 272.654 164.473C272.995 165.297 273.17 166.181 273.169 167.073C273.168 167.965 272.992 168.849 272.65 169.673C272.308 170.497 271.808 171.246 271.177 171.876L173.806 269.284C173.178 269.917 172.431 270.42 171.608 270.762C170.785 271.105 169.903 271.28 169.011 271.279V271.279Z" fill="currentColor"/>
<path d="M118.263 271.279C116.922 271.275 115.612 270.874 114.499 270.126C113.385 269.379 112.517 268.319 112.005 267.079C111.492 265.839 111.358 264.475 111.618 263.159C111.879 261.843 112.522 260.633 113.469 259.682L261.58 111.493C262.203 110.831 262.952 110.301 263.784 109.934C264.615 109.567 265.512 109.371 266.42 109.357C267.329 109.344 268.231 109.513 269.073 109.854C269.915 110.196 270.68 110.703 271.323 111.346C271.966 111.989 272.473 112.754 272.814 113.597C273.155 114.439 273.324 115.342 273.311 116.251C273.297 117.16 273.101 118.057 272.734 118.889C272.368 119.721 271.838 120.471 271.176 121.094L123.065 269.284C122.437 269.918 121.689 270.421 120.864 270.764C120.04 271.106 119.156 271.281 118.263 271.279Z" fill="currentColor"/>
<path d="M273.106 64.5856C273.109 64.5497 273.109 64.5135 273.106 64.4776C273.106 64.3911 273.106 64.3047 273.063 64.2183C273.019 64.1318 273.019 63.995 272.991 63.8869C272.962 63.7789 272.875 63.4836 272.811 63.2819C272.746 63.0802 272.724 63.0442 272.674 62.9289C272.623 62.8137 272.537 62.612 272.458 62.4607C272.311 62.1576 272.138 61.8683 271.939 61.5963C271.853 61.4739 271.767 61.3586 271.673 61.2434C271.653 61.2137 271.629 61.187 271.601 61.1641C271.51 61.0471 271.412 60.9364 271.306 60.8328C271.191 60.7103 271.076 60.5951 270.953 60.4871C270.707 60.2686 270.448 60.0665 270.176 59.882C270.039 59.7884 269.902 59.7019 269.758 59.6227C269.212 59.3 268.623 59.0574 268.009 58.9024L267.8 58.8519C267.674 58.8228 267.547 58.8011 267.418 58.7871H267.375C267.224 58.7871 267.066 58.7439 266.914 58.7367C266.763 58.7295 266.576 58.7367 266.41 58.7367H89.6819C88.7948 54.3935 86.7485 50.3719 83.7603 47.0989C80.7722 43.826 76.9538 41.4239 72.7107 40.148C68.4676 38.872 63.9583 38.7698 59.6618 39.8521C55.3653 40.9344 51.4421 43.161 48.3088 46.2951C45.1755 49.4293 42.9492 53.354 41.8664 57.6525C40.7836 61.951 40.8846 66.4627 42.1588 70.7084C43.4331 74.954 45.8329 78.775 49.1034 81.7656C52.3739 84.7561 56.3929 86.8046 60.7335 87.6932V264.486C60.7335 264.659 60.7335 264.832 60.7335 264.998C60.7335 265.163 60.7335 265.308 60.7839 265.459C60.7806 265.473 60.7806 265.488 60.7839 265.502C60.7985 265.633 60.8201 265.763 60.8487 265.891C60.8487 265.963 60.8487 266.035 60.8991 266.1L60.9855 266.417C60.9855 266.496 61.0359 266.575 61.0647 266.654C61.139 266.901 61.2304 267.141 61.3383 267.375L61.4247 267.555C61.4622 267.639 61.5055 267.721 61.5542 267.8C61.8055 268.257 62.11 268.682 62.4614 269.068C62.5694 269.19 62.6845 269.305 62.8069 269.42C62.9293 269.536 63.0229 269.622 63.1381 269.716C63.1609 269.743 63.1876 269.768 63.2173 269.788L63.5701 270.054C63.8443 270.249 64.1331 270.423 64.434 270.573C64.5852 270.652 64.7435 270.724 64.9019 270.789C65.3148 270.962 65.7441 271.092 66.1834 271.178L66.457 271.228C66.8002 271.28 67.1466 271.306 67.4937 271.308C68.6472 271.31 69.7821 271.017 70.791 270.458L70.9637 270.357C71.4496 270.069 71.8971 269.72 72.2956 269.32L271.184 70.3121C271.584 69.9133 271.932 69.4656 272.22 68.9795C272.278 68.8859 272.328 68.785 272.379 68.6914C272.529 68.4031 272.659 68.1046 272.767 67.7982C272.88 67.4892 272.967 67.1711 273.027 66.8474C273.027 66.7538 273.063 66.6673 273.077 66.5737C273.148 66.1139 273.172 65.6481 273.149 65.1835C273.149 64.9818 273.135 64.7801 273.106 64.5856ZM74.3114 248.085V86.6055C77.5677 85.373 80.5251 83.4622 82.9876 80.9997C85.45 78.5372 87.3613 75.5792 88.5948 72.3218H249.989L74.3114 248.085Z" fill="currentColor"/>
<path d="M62.4902 269.039C62.5985 269.162 62.714 269.277 62.8366 269.393L62.7284 269.292C62.6418 269.205 62.5624 269.118 62.4902 269.039Z" fill="currentColor"/>
<path d="M63.5991 270.025C63.8733 270.22 64.1621 270.394 64.463 270.544C64.1592 270.399 63.8699 270.225 63.5991 270.025V270.025Z" fill="currentColor"/>
<path d="M271.184 60.7256L271.285 60.8339C271.17 60.7111 271.054 60.5956 270.932 60.4873C271.018 60.5595 271.098 60.6462 271.184 60.7256Z" fill="currentColor"/>
</svg>
